<svg xmlns="http://www.w3.org/2000/svg" xmlns:xlink="http://www.w3.org/1999/xlink" contentStyleType="text/css" data-diagram-type="CLASS" height="718px" preserveAspectRatio="none" style="width:1165px;height:718px;background:#FFFFFF;" version="1.1" viewBox="0 0 1165 718" width="1165px" zoomAndPan="magnify"><defs/><g><!--class Patient--><g class="entity" data-entity="Patient" data-source-line="1" data-uid="ent0002" id="entity_Patient"><rect fill="#F1F1F1" height="639.1054" rx="2.5" ry="2.5" style="stroke:#181818;stroke-width:0.5;" width="211.5413" x="7" y="72.3"/><ellipse cx="85.2247" cy="88.3" fill="#ADD1B2" rx="11" ry="11" style="stroke:#181818;stroke-width:1;"/><path d="M84.6935,95.2219 Q82.9435,95.2219 81.8029,94.4875 Q80.6779,93.7375 80.1154,92.3937 Q79.5685,91.0344 79.5685,89.2375 Q79.5685,87.2062 80.2247,85.7531 Q80.881,84.3 82.1622,83.5187 Q83.4435,82.7375 85.3185,82.7375 Q86.2091,82.7375 86.881,82.925 Q87.5529,83.0969 88.2404,83.4406 L87.4279,85.4562 Q86.8029,85.1437 86.256,85.0187 Q85.7247,84.8937 85.2404,84.8937 Q84.0685,84.8937 83.3654,85.425 Q82.6622,85.9562 82.3654,86.9094 Q82.0685,87.8625 82.0685,89.1281 Q82.0685,91.1437 82.7872,92.1125 Q83.506,93.0656 85.0997,93.0656 Q85.6935,93.0656 86.3185,92.9094 Q86.9435,92.7531 87.7716,92.3781 L87.7716,94.5969 Q87.0372,94.9094 86.2404,95.0656 Q85.4591,95.2219 84.6935,95.2219 Z " fill="#000000"/><text fill="#000000" font-family="sans-serif" font-size="14" lengthAdjust="spacing" textLength="46.5918" x="105.7247" y="93.732">Patient</text><line style="stroke:#181818;stroke-width:0.5;" x1="8" x2="217.5413" y1="104.3" y2="104.3"/><ellipse cx="18" cy="119.334" fill="none" rx="3" ry="3" style="stroke:#038048;stroke-width:1;"/><text fill="#000000" font-family="sans-serif" font-size="14" lengthAdjust="spacing" textLength="116.4516" x="27" y="123.2659">PatientID: integer</text><text fill="#000000" font-family="sans-serif" font-size="14" lengthAdjust="spacing" textLength="125.0475" x="27" y="142.3339">FirstName: varchar</text><text fill="#000000" font-family="sans-serif" font-size="14" lengthAdjust="spacing" textLength="141.6655" x="27" y="161.4018">MiddleName: varchar</text><text fill="#000000" font-family="sans-serif" font-size="14" lengthAdjust="spacing" textLength="123.5775" x="27" y="180.4697">LastName: varchar</text><text fill="#000000" font-family="sans-serif" font-size="14" lengthAdjust="spacing" textLength="67.0597" x="27" y="199.5376">DOB: date</text><text fill="#000000" font-family="sans-serif" font-size="14" lengthAdjust="spacing" textLength="113.4276" x="27" y="218.6055">Ethnicity: varchar</text><text fill="#000000" font-family="sans-serif" font-size="14" lengthAdjust="spacing" textLength="185.5413" x="27" y="237.6734">PreferredLanguage: varchar</text><text fill="#000000" font-family="sans-serif" font-size="14" lengthAdjust="spacing" textLength="132.4255" x="27" y="256.7414">Occupation: varchar</text><text fill="#000000" font-family="sans-serif" font-size="14" lengthAdjust="spacing" textLength="3.64" x="27" y="275.8093">&#160;</text><text fill="#000000" font-family="sans-serif" font-size="14" lengthAdjust="spacing" textLength="95.6616" x="27" y="294.8772">NatID: varchar</text><text fill="#000000" font-family="sans-serif" font-size="14" lengthAdjust="spacing" textLength="133.9095" x="27" y="313.9451">PassportNo: varchar</text><text fill="#000000" font-family="sans-serif" font-size="14" lengthAdjust="spacing" textLength="172.1853" x="27" y="333.013">DriversLicenseNo: varchar</text><text fill="#000000" font-family="sans-serif" font-size="14" lengthAdjust="spacing" textLength="99.2876" x="27" y="352.0809">Phone: varchar</text><text fill="#000000" font-family="sans-serif" font-size="14" lengthAdjust="spacing" textLength="93.0996" x="27" y="371.1489">Email: varchar</text><text fill="#000000" font-family="sans-serif" font-size="14" lengthAdjust="spacing" textLength="110.4036" x="27" y="390.2168">Address: varchar</text><text fill="#000000" font-family="sans-serif" font-size="14" lengthAdjust="spacing" textLength="81.8017" x="27" y="409.2847">City: varchar</text><text fill="#000000" font-family="sans-serif" font-size="14" lengthAdjust="spacing" textLength="90.6917" x="27" y="428.3526">State: varchar</text><text fill="#000000" font-family="sans-serif" font-size="14" lengthAdjust="spacing" textLength="109.7456" x="27" y="447.4205">Country: varchar</text><text fill="#000000" font-family="sans-serif" font-size="14" lengthAdjust="spacing" textLength="3.64" x="27" y="466.4884">&#160;</text><text fill="#000000" font-family="sans-serif" font-size="14" lengthAdjust="spacing" textLength="123.6335" x="27" y="485.5564">FirstVisitDate: date</text><text fill="#000000" font-family="sans-serif" font-size="14" lengthAdjust="spacing" textLength="122.1635" x="27" y="504.6243">LastVisitDate: date</text><text fill="#000000" font-family="sans-serif" font-size="14" lengthAdjust="spacing" textLength="3.64" x="27" y="523.6922">&#160;</text><text fill="#000000" font-family="sans-serif" font-size="14" lengthAdjust="spacing" textLength="137.7735" x="27" y="542.7601">InsuranceID: varchar</text><text fill="#000000" font-family="sans-serif" font-size="14" lengthAdjust="spacing" textLength="178.5413" x="27" y="561.828">InsuranceProvider: varchar</text><text fill="#000000" font-family="sans-serif" font-size="14" lengthAdjust="spacing" textLength="3.64" x="27" y="580.8959">&#160;</text><text fill="#000000" font-family="sans-serif" font-size="14" lengthAdjust="spacing" textLength="124.5855" x="27" y="599.9639">BloodType: integer</text><text fill="#000000" font-family="sans-serif" font-size="14" lengthAdjust="spacing" textLength="99.0916" x="27" y="619.0318">Height: integer</text><text fill="#000000" font-family="sans-serif" font-size="14" lengthAdjust="spacing" textLength="101.7376" x="27" y="638.0997">Weight: integer</text><text fill="#000000" font-family="sans-serif" font-size="14" lengthAdjust="spacing" textLength="3.64" x="27" y="657.1676">&#160;</text><text fill="#000000" font-family="sans-serif" font-size="14" lengthAdjust="spacing" textLength="95.2416" x="27" y="676.2355">DNRStatus: bit</text><text fill="#000000" font-family="sans-serif" font-size="14" lengthAdjust="spacing" textLength="149.0995" x="27" y="695.3034">OrganDonorStatus: bit</text><line style="stroke:#181818;stroke-width:0.5;" x1="8" x2="217.5413" y1="703.4054" y2="703.4054"/></g><!--class PatientCoreMedicalInformation--><g class="entity" data-entity="PatientCoreMedicalInformation" data-source-line="35" data-uid="ent0003" id="entity_PatientCoreMedicalInformation"><rect fill="#F1F1F1" height="105.2038" rx="2.5" ry="2.5" style="stroke:#181818;stroke-width:0.5;" width="239.7872" x="253.88" y="339.26"/><ellipse cx="268.88" cy="355.26" fill="#ADD1B2" rx="11" ry="11" style="stroke:#181818;stroke-width:1;"/><path d="M268.3488,362.1819 Q266.5988,362.1819 265.4581,361.4475 Q264.3331,360.6975 263.7706,359.3538 Q263.2238,357.9944 263.2238,356.1975 Q263.2238,354.1663 263.88,352.7131 Q264.5363,351.26 265.8175,350.4788 Q267.0988,349.6975 268.9738,349.6975 Q269.8644,349.6975 270.5363,349.885 Q271.2081,350.0569 271.8956,350.4006 L271.0831,352.4163 Q270.4581,352.1038 269.9113,351.9788 Q269.38,351.8538 268.8956,351.8538 Q267.7238,351.8538 267.0206,352.385 Q266.3175,352.9163 266.0206,353.8694 Q265.7238,354.8225 265.7238,356.0881 Q265.7238,358.1038 266.4425,359.0725 Q267.1613,360.0256 268.755,360.0256 Q269.3488,360.0256 269.9738,359.8694 Q270.5988,359.7131 271.4269,359.3381 L271.4269,361.5569 Q270.6925,361.8694 269.8956,362.0256 Q269.1144,362.1819 268.3488,362.1819 Z " fill="#000000"/><text fill="#000000" font-family="sans-serif" font-size="14" lengthAdjust="spacing" textLength="207.7872" x="282.88" y="360.692">PatientCoreMedicalInformation</text><line style="stroke:#181818;stroke-width:0.5;" x1="254.88" x2="492.6672" y1="371.26" y2="371.26"/><ellipse cx="264.88" cy="386.294" fill="none" rx="3" ry="3" style="stroke:#038048;stroke-width:1;"/><text fill="#000000" font-family="sans-serif" font-size="14" lengthAdjust="spacing" textLength="116.4516" x="273.88" y="390.2259">PatientID: integer</text><text fill="#000000" font-family="sans-serif" font-size="14" lengthAdjust="spacing" textLength="165.5214" x="273.88" y="409.2939">InformationType: integer</text><text fill="#000000" font-family="sans-serif" font-size="14" lengthAdjust="spacing" textLength="89.2077" x="273.88" y="428.3618">Note: varchar</text><line style="stroke:#181818;stroke-width:0.5;" x1="254.88" x2="492.6672" y1="436.4638" y2="436.4638"/></g><!--class PatientEmergencyContact--><g class="entity" data-entity="PatientEmergencyContact" data-source-line="41" data-uid="ent0004" id="entity_PatientEmergencyContact"><rect fill="#F1F1F1" height="143.3396" rx="2.5" ry="2.5" style="stroke:#181818;stroke-width:0.5;" width="212.9973" x="945.27" y="320.19"/><ellipse cx="964.8528" cy="336.19" fill="#ADD1B2" rx="11" ry="11" style="stroke:#181818;stroke-width:1;"/><path d="M964.3215,343.1119 Q962.5715,343.1119 961.4309,342.3775 Q960.3059,341.6275 959.7434,340.2837 Q959.1965,338.9244 959.1965,337.1275 Q959.1965,335.0962 959.8528,333.6431 Q960.509,332.19 961.7903,331.4087 Q963.0715,330.6275 964.9465,330.6275 Q965.8372,330.6275 966.509,330.815 Q967.1809,330.9869 967.8684,331.3306 L967.0559,333.3462 Q966.4309,333.0337 965.884,332.9087 Q965.3528,332.7837 964.8684,332.7837 Q963.6965,332.7837 962.9934,333.315 Q962.2903,333.8462 961.9934,334.7994 Q961.6965,335.7525 961.6965,337.0181 Q961.6965,339.0337 962.4153,340.0025 Q963.134,340.9556 964.7278,340.9556 Q965.3215,340.9556 965.9465,340.7994 Q966.5715,340.6431 967.3997,340.2681 L967.3997,342.4869 Q966.6653,342.7994 965.8684,342.9556 Q965.0872,343.1119 964.3215,343.1119 Z " fill="#000000"/><text fill="#000000" font-family="sans-serif" font-size="14" lengthAdjust="spacing" textLength="170.8133" x="979.8712" y="341.622">PatientEmergencyContact</text><line style="stroke:#181818;stroke-width:0.5;" x1="946.27" x2="1157.2673" y1="352.19" y2="352.19"/><ellipse cx="956.27" cy="367.224" fill="none" rx="3" ry="3" style="stroke:#038048;stroke-width:1;"/><text fill="#000000" font-family="sans-serif" font-size="14" lengthAdjust="spacing" textLength="116.4516" x="965.27" y="371.1559">PatientID: integer</text><text fill="#000000" font-family="sans-serif" font-size="14" lengthAdjust="spacing" textLength="139.2295" x="965.27" y="390.2239">ContactType: varchar</text><text fill="#000000" font-family="sans-serif" font-size="14" lengthAdjust="spacing" textLength="186.9973" x="965.27" y="409.2918">ContactInformation: varchar</text><text fill="#000000" font-family="sans-serif" font-size="14" lengthAdjust="spacing" textLength="138.5855" x="965.27" y="428.3597">Relationship: varchar</text><text fill="#000000" font-family="sans-serif" font-size="14" lengthAdjust="spacing" textLength="120.6236" x="965.27" y="447.4276">LastUpdated: date</text><line style="stroke:#181818;stroke-width:0.5;" x1="946.27" x2="1157.2673" y1="455.5296" y2="455.5296"/></g><!--class PatientHistory--><g class="entity" data-entity="PatientHistory" data-source-line="49" data-uid="ent0005" id="entity_PatientHistory"><rect fill="#F1F1F1" height="181.4754" rx="2.5" ry="2.5" style="stroke:#181818;stroke-width:0.5;" width="182.5054" x="727.52" y="301.12"/><ellipse cx="768.0691" cy="317.12" fill="#ADD1B2" rx="11" ry="11" style="stroke:#181818;stroke-width:1;"/><path d="M767.5378,324.0419 Q765.7878,324.0419 764.6472,323.3075 Q763.5222,322.5575 762.9597,321.2137 Q762.4128,319.8544 762.4128,318.0575 Q762.4128,316.0262 763.0691,314.5731 Q763.7253,313.12 765.0066,312.3387 Q766.2878,311.5575 768.1628,311.5575 Q769.0535,311.5575 769.7253,311.745 Q770.3972,311.9169 771.0847,312.2606 L770.2722,314.2762 Q769.6472,313.9637 769.1003,313.8387 Q768.5691,313.7137 768.0847,313.7137 Q766.9128,313.7137 766.2097,314.245 Q765.5066,314.7762 765.2097,315.7294 Q764.9128,316.6825 764.9128,317.9481 Q764.9128,319.9637 765.6316,320.9325 Q766.3503,321.8856 767.9441,321.8856 Q768.5378,321.8856 769.1628,321.7294 Q769.7878,321.5731 770.616,321.1981 L770.616,323.4169 Q769.8816,323.7294 769.0847,323.8856 Q768.3035,324.0419 767.5378,324.0419 Z " fill="#000000"/><text fill="#000000" font-family="sans-serif" font-size="14" lengthAdjust="spacing" textLength="93.7297" x="787.7467" y="322.552">PatientHistory</text><line style="stroke:#181818;stroke-width:0.5;" x1="728.52" x2="909.0254" y1="333.12" y2="333.12"/><ellipse cx="738.52" cy="348.154" fill="none" rx="3" ry="3" style="stroke:#038048;stroke-width:1;"/><text fill="#000000" font-family="sans-serif" font-size="14" lengthAdjust="spacing" textLength="116.4516" x="747.52" y="352.0859">PatientID: integer</text><ellipse cx="738.52" cy="367.2219" fill="none" rx="3" ry="3" style="stroke:#038048;stroke-width:1;"/><text fill="#000000" font-family="sans-serif" font-size="14" lengthAdjust="spacing" textLength="114.5756" x="747.52" y="371.1539">DoctorID: integer</text><ellipse cx="738.52" cy="386.2898" fill="none" rx="3" ry="3" style="stroke:#038048;stroke-width:1;"/><text fill="#000000" font-family="sans-serif" font-size="14" lengthAdjust="spacing" textLength="156.5054" x="747.52" y="390.2218">AppointmentID: integer</text><text fill="#000000" font-family="sans-serif" font-size="14" lengthAdjust="spacing" textLength="95.2136" x="747.52" y="409.2897">VisitDate: date</text><text fill="#000000" font-family="sans-serif" font-size="14" lengthAdjust="spacing" textLength="121.5895" x="747.52" y="428.3576">Diagnosis: varchar</text><text fill="#000000" font-family="sans-serif" font-size="14" lengthAdjust="spacing" textLength="114.5476" x="747.52" y="447.4255">Category: integer</text><text fill="#000000" font-family="sans-serif" font-size="14" lengthAdjust="spacing" textLength="89.2077" x="747.52" y="466.4934">Note: varchar</text><line style="stroke:#181818;stroke-width:0.5;" x1="728.52" x2="909.0254" y1="474.5954" y2="474.5954"/></g><!--class Type_CoreMedInfo--><g class="entity" data-entity="Type_CoreMedInfo" data-source-line="59" data-uid="ent0006" id="entity_Type_CoreMedInfo"><rect fill="#F1F1F1" height="162.4075" rx="2.5" ry="2.5" style="stroke:#181818;stroke-width:0.5;" width="164.3054" x="528.62" y="310.65"/><ellipse cx="547.1192" cy="326.65" fill="#EB937F" rx="11" ry="11" style="stroke:#181818;stroke-width:1;"/><path d="M543.4785,333.15 L543.4785,321.0094 L551.1348,321.0094 L551.1348,323.1344 L545.8535,323.1344 L545.8535,325.7906 L550.8692,325.7906 L550.8692,327.9156 L545.8535,327.9156 L545.8535,331.025 L551.1348,331.025 L551.1348,333.15 L543.4785,333.15 Z " fill="#000000"/><text fill="#000000" font-family="sans-serif" font-size="14" lengthAdjust="spacing" textLength="124.5295" x="561.8967" y="332.082">Type_CoreMedInfo</text><line style="stroke:#181818;stroke-width:0.5;" x1="529.62" x2="691.9254" y1="342.65" y2="342.65"/><text fill="#000000" font-family="sans-serif" font-size="14" lengthAdjust="spacing" textLength="72.0717" x="534.62" y="361.6159">0: Allergies</text><text fill="#000000" font-family="sans-serif" font-size="14" lengthAdjust="spacing" textLength="134.0215" x="534.62" y="380.6839">1: Medical Condition</text><text fill="#000000" font-family="sans-serif" font-size="14" lengthAdjust="spacing" textLength="133.0415" x="534.62" y="399.7518">2: Genetic Condition</text><text fill="#000000" font-family="sans-serif" font-size="14" lengthAdjust="spacing" textLength="111.7056" x="534.62" y="418.8197">3: Substance Use</text><text fill="#000000" font-family="sans-serif" font-size="14" lengthAdjust="spacing" textLength="152.3054" x="534.62" y="437.8876">4: Lifestyle Information</text><text fill="#000000" font-family="sans-serif" font-size="14" lengthAdjust="spacing" textLength="145.7954" x="534.62" y="456.9555">5: Dietary Information</text><line style="stroke:#181818;stroke-width:0.5;" x1="529.62" x2="691.9254" y1="465.0575" y2="465.0575"/></g><!--link Patient to PatientEmergencyContact--><g class="link" data-entity-1="Patient" data-entity-2="PatientEmergencyContact" data-source-line="68" data-uid="lnk7" id="link_Patient_PatientEmergencyContact"><path codeLine="68" d="M215.47,71.9 C227.05,60.55 239.94,50.54 254.27,42.3 C317.48,6 847.07,6 910.27,42.3 C1007.21,97.98 1037.1053,228.9381 1046.7253,313.9481" fill="none" id="Patient-to-PatientEmergencyContact" style="stroke:#181818;stroke-width:1;"/><polygon fill="#181818" points="1047.4,319.91,1050.3626,310.5173,1046.8378,314.9417,1042.4134,311.4169,1047.4,319.91" style="stroke:#181818;stroke-width:1;"/></g><!--link Patient to PatientHistory--><g class="link" data-entity-1="Patient" data-entity-2="PatientHistory" data-source-line="69" data-uid="lnk8" id="link_Patient_PatientHistory"><path codeLine="69" d="M215.47,71.9 C227.05,60.55 239.94,50.54 254.27,42.3 C296.57,18.01 650.97,18.01 693.27,42.3 C782.03,93.29 808.4344,209.484 816.0944,294.944" fill="none" id="Patient-to-PatientHistory" style="stroke:#181818;stroke-width:1;"/><polygon fill="#181818" points="816.63,300.92,819.8106,291.5988,816.1836,295.94,811.8425,292.313,816.63,300.92" style="stroke:#181818;stroke-width:1;"/></g><!--link Patient to PatientCoreMedicalInformation--><g class="link" data-entity-1="Patient" data-entity-2="PatientCoreMedicalInformation" data-source-line="70" data-uid="lnk9" id="link_Patient_PatientCoreMedicalInformation"><path codeLine="70" d="M218.8,391.86 C230.4,391.86 236.01,391.86 247.61,391.86" fill="none" id="Patient-to-PatientCoreMedicalInformation" style="stroke:#181818;stroke-width:1;"/><polygon fill="#181818" points="253.61,391.86,244.61,387.86,248.61,391.86,244.61,395.86,253.61,391.86" style="stroke:#181818;stroke-width:1;"/></g><!--link PatientCoreMedicalInformation to Type_CoreMedInfo--><g class="link" data-entity-1="PatientCoreMedicalInformation" data-entity-2="Type_CoreMedInfo" data-source-line="71" data-uid="lnk10" id="link_PatientCoreMedicalInformation_Type_CoreMedInfo"><path codeLine="71" d="M494.12,391.86 C505.51,391.86 510.91,391.86 522.3,391.86" fill="none" id="PatientCoreMedicalInformation-to-Type_CoreMedInfo" style="stroke:#181818;stroke-width:1;"/><polygon fill="#181818" points="528.3,391.86,519.3,387.86,523.3,391.86,519.3,395.86,528.3,391.86" style="stroke:#181818;stroke-width:1;"/></g><!--SRC=[XLJBRjim4BpxAtWF2ZHjUj6XW6EvYG57CV9eZmL3hgK5959OhWm8HVyz5AMa4gN6lcbcASxEZAnAwPmuI4OmBFwiXFzT38-xD15e67AWWFz0Sfp92X9nagGAsSDtg7K9StmlbwRJ- -j4QCaGdhPS65J8xNJeG7048j1xQV96vj4xxfLgQg_Hcdzu838PH4zUvVUhBN5c8ns49o2tHmN6GSmU2ckYIxULn78AhRKcS6uARcRRFB9VDngoZM5g8_d1u9_eaDDmujscpieO3yJEk8QaKH2l_KuSo9vG0qLNNPVMwgUsXcd4ju1vmLFiLuJrzcKFtLgDN_u5kK-5ScbIQooDcR-hbHftR6C9xa2ZakNE72rL8SSppHjDpZLdTknkVD-s0ih1g7PZ3KjrhkF3L7_BDB50Z9HC-GSe0-eAhEVVmNFTPQQ7w6ADj-ZOKdj6saLgbH-RmUkwjXwe5euiTIb5cHlhCAwjvtFRLV93Ry4qbUZS-Jq4sHao2F-SY7LPUhiHN00k4p54tTcdiVCd45yISGC665L4V4t4O_FYk6kkU7Qzugj4xF48ZjiInbK8vBV4RmGilNrZoajz-rFxzFr_NLWO6Q9OO9QBk_gurlvuRDOh]--></g></svg>