<svg xmlns="http://www.w3.org/2000/svg" xmlns:xlink="http://www.w3.org/1999/xlink" contentStyleType="text/css" data-diagram-type="CLASS" height="720px" preserveAspectRatio="none" style="width:1195px;height:720px;background:#FFFFFF;" version="1.1" viewBox="0 0 1195 720" width="1195px" zoomAndPan="magnify"><defs/><g><!--class Patient--><g class="entity" data-entity="Patient" data-source-line="1" data-uid="ent0002" id="entity_Patient"><rect fill="#F1F1F1" height="639.1054" rx="2.5" ry="2.5" style="stroke:#181818;stroke-width:0.5;" width="211.5413" x="7" y="73.96"/><ellipse cx="85.2247" cy="89.96" fill="#ADD1B2" rx="11" ry="11" style="stroke:#181818;stroke-width:1;"/><path d="M84.6935,96.8819 Q82.9435,96.8819 81.8029,96.1475 Q80.6779,95.3975 80.1154,94.0538 Q79.5685,92.6944 79.5685,90.8975 Q79.5685,88.8663 80.2247,87.4131 Q80.881,85.96 82.1622,85.1788 Q83.4435,84.3975 85.3185,84.3975 Q86.2091,84.3975 86.881,84.585 Q87.5529,84.7569 88.2404,85.1006 L87.4279,87.1163 Q86.8029,86.8038 86.256,86.6788 Q85.7247,86.5538 85.2404,86.5538 Q84.0685,86.5538 83.3654,87.085 Q82.6622,87.6163 82.3654,88.5694 Q82.0685,89.5225 82.0685,90.7881 Q82.0685,92.8038 82.7872,93.7725 Q83.506,94.7256 85.0997,94.7256 Q85.6935,94.7256 86.3185,94.5694 Q86.9435,94.4131 87.7716,94.0381 L87.7716,96.2569 Q87.0372,96.5694 86.2404,96.7256 Q85.4591,96.8819 84.6935,96.8819 Z " fill="#000000"/><text fill="#000000" font-family="sans-serif" font-size="14" lengthAdjust="spacing" textLength="46.5918" x="105.7247" y="95.392">Patient</text><line style="stroke:#181818;stroke-width:0.5;" x1="8" x2="217.5413" y1="105.96" y2="105.96"/><ellipse cx="18" cy="120.994" fill="none" rx="3" ry="3" style="stroke:#038048;stroke-width:1;"/><text fill="#000000" font-family="sans-serif" font-size="14" lengthAdjust="spacing" textLength="116.4516" x="27" y="124.9259">PatientID: integer</text><text fill="#000000" font-family="sans-serif" font-size="14" lengthAdjust="spacing" textLength="125.0475" x="27" y="143.9939">FirstName: varchar</text><text fill="#000000" font-family="sans-serif" font-size="14" lengthAdjust="spacing" textLength="141.6655" x="27" y="163.0618">MiddleName: varchar</text><text fill="#000000" font-family="sans-serif" font-size="14" lengthAdjust="spacing" textLength="123.5775" x="27" y="182.1297">LastName: varchar</text><text fill="#000000" font-family="sans-serif" font-size="14" lengthAdjust="spacing" textLength="67.0597" x="27" y="201.1976">DOB: date</text><text fill="#000000" font-family="sans-serif" font-size="14" lengthAdjust="spacing" textLength="113.4276" x="27" y="220.2655">Ethnicity: varchar</text><text fill="#000000" font-family="sans-serif" font-size="14" lengthAdjust="spacing" textLength="185.5413" x="27" y="239.3334">PreferredLanguage: varchar</text><text fill="#000000" font-family="sans-serif" font-size="14" lengthAdjust="spacing" textLength="132.4255" x="27" y="258.4014">Occupation: varchar</text><text fill="#000000" font-family="sans-serif" font-size="14" lengthAdjust="spacing" textLength="3.64" x="27" y="277.4693">&#160;</text><text fill="#000000" font-family="sans-serif" font-size="14" lengthAdjust="spacing" textLength="95.6616" x="27" y="296.5372">NatID: varchar</text><text fill="#000000" font-family="sans-serif" font-size="14" lengthAdjust="spacing" textLength="133.9095" x="27" y="315.6051">PassportNo: varchar</text><text fill="#000000" font-family="sans-serif" font-size="14" lengthAdjust="spacing" textLength="172.1853" x="27" y="334.673">DriversLicenseNo: varchar</text><text fill="#000000" font-family="sans-serif" font-size="14" lengthAdjust="spacing" textLength="99.2876" x="27" y="353.7409">Phone: varchar</text><text fill="#000000" font-family="sans-serif" font-size="14" lengthAdjust="spacing" textLength="93.0996" x="27" y="372.8089">Email: varchar</text><text fill="#000000" font-family="sans-serif" font-size="14" lengthAdjust="spacing" textLength="110.4036" x="27" y="391.8768">Address: varchar</text><text fill="#000000" font-family="sans-serif" font-size="14" lengthAdjust="spacing" textLength="81.8017" x="27" y="410.9447">City: varchar</text><text fill="#000000" font-family="sans-serif" font-size="14" lengthAdjust="spacing" textLength="90.6917" x="27" y="430.0126">State: varchar</text><text fill="#000000" font-family="sans-serif" font-size="14" lengthAdjust="spacing" textLength="109.7456" x="27" y="449.0805">Country: varchar</text><text fill="#000000" font-family="sans-serif" font-size="14" lengthAdjust="spacing" textLength="3.64" x="27" y="468.1484">&#160;</text><text fill="#000000" font-family="sans-serif" font-size="14" lengthAdjust="spacing" textLength="123.6335" x="27" y="487.2164">FirstVisitDate: date</text><text fill="#000000" font-family="sans-serif" font-size="14" lengthAdjust="spacing" textLength="122.1635" x="27" y="506.2843">LastVisitDate: date</text><text fill="#000000" font-family="sans-serif" font-size="14" lengthAdjust="spacing" textLength="3.64" x="27" y="525.3522">&#160;</text><text fill="#000000" font-family="sans-serif" font-size="14" lengthAdjust="spacing" textLength="137.7735" x="27" y="544.4201">InsuranceID: varchar</text><text fill="#000000" font-family="sans-serif" font-size="14" lengthAdjust="spacing" textLength="178.5413" x="27" y="563.488">InsuranceProvider: varchar</text><text fill="#000000" font-family="sans-serif" font-size="14" lengthAdjust="spacing" textLength="3.64" x="27" y="582.5559">&#160;</text><text fill="#000000" font-family="sans-serif" font-size="14" lengthAdjust="spacing" textLength="124.5855" x="27" y="601.6239">BloodType: integer</text><text fill="#000000" font-family="sans-serif" font-size="14" lengthAdjust="spacing" textLength="99.0916" x="27" y="620.6918">Height: integer</text><text fill="#000000" font-family="sans-serif" font-size="14" lengthAdjust="spacing" textLength="101.7376" x="27" y="639.7597">Weight: integer</text><text fill="#000000" font-family="sans-serif" font-size="14" lengthAdjust="spacing" textLength="3.64" x="27" y="658.8276">&#160;</text><text fill="#000000" font-family="sans-serif" font-size="14" lengthAdjust="spacing" textLength="95.2416" x="27" y="677.8955">DNRStatus: bit</text><text fill="#000000" font-family="sans-serif" font-size="14" lengthAdjust="spacing" textLength="149.0995" x="27" y="696.9634">OrganDonorStatus: bit</text><line style="stroke:#181818;stroke-width:0.5;" x1="8" x2="217.5413" y1="705.0654" y2="705.0654"/></g><!--class PatientCoreMedicalInformation--><g class="entity" data-entity="PatientCoreMedicalInformation" data-source-line="35" data-uid="ent0003" id="entity_PatientCoreMedicalInformation"><rect fill="#F1F1F1" height="105.2038" rx="2.5" ry="2.5" style="stroke:#181818;stroke-width:0.5;" width="239.7872" x="253.88" y="340.92"/><ellipse cx="268.88" cy="356.92" fill="#ADD1B2" rx="11" ry="11" style="stroke:#181818;stroke-width:1;"/><path d="M268.3488,363.8419 Q266.5988,363.8419 265.4581,363.1075 Q264.3331,362.3575 263.7706,361.0138 Q263.2238,359.6544 263.2238,357.8575 Q263.2238,355.8263 263.88,354.3731 Q264.5363,352.92 265.8175,352.1388 Q267.0988,351.3575 268.9738,351.3575 Q269.8644,351.3575 270.5363,351.545 Q271.2081,351.7169 271.8956,352.0606 L271.0831,354.0763 Q270.4581,353.7638 269.9113,353.6388 Q269.38,353.5138 268.8956,353.5138 Q267.7238,353.5138 267.0206,354.045 Q266.3175,354.5763 266.0206,355.5294 Q265.7238,356.4825 265.7238,357.7481 Q265.7238,359.7638 266.4425,360.7325 Q267.1613,361.6856 268.755,361.6856 Q269.3488,361.6856 269.9738,361.5294 Q270.5988,361.3731 271.4269,360.9981 L271.4269,363.2169 Q270.6925,363.5294 269.8956,363.6856 Q269.1144,363.8419 268.3488,363.8419 Z " fill="#000000"/><text fill="#000000" font-family="sans-serif" font-size="14" lengthAdjust="spacing" textLength="207.7872" x="282.88" y="362.352">PatientCoreMedicalInformation</text><line style="stroke:#181818;stroke-width:0.5;" x1="254.88" x2="492.6672" y1="372.92" y2="372.92"/><ellipse cx="264.88" cy="387.954" fill="none" rx="3" ry="3" style="stroke:#038048;stroke-width:1;"/><text fill="#000000" font-family="sans-serif" font-size="14" lengthAdjust="spacing" textLength="116.4516" x="273.88" y="391.8859">PatientID: integer</text><text fill="#000000" font-family="sans-serif" font-size="14" lengthAdjust="spacing" textLength="165.5214" x="273.88" y="410.9539">InformationType: integer</text><text fill="#000000" font-family="sans-serif" font-size="14" lengthAdjust="spacing" textLength="89.2077" x="273.88" y="430.0218">Note: varchar</text><line style="stroke:#181818;stroke-width:0.5;" x1="254.88" x2="492.6672" y1="438.1238" y2="438.1238"/></g><!--class PatientEmergencyContact--><g class="entity" data-entity="PatientEmergencyContact" data-source-line="41" data-uid="ent0004" id="entity_PatientEmergencyContact"><rect fill="#F1F1F1" height="143.3396" rx="2.5" ry="2.5" style="stroke:#181818;stroke-width:0.5;" width="212.9973" x="975.27" y="321.85"/><ellipse cx="994.8528" cy="337.85" fill="#ADD1B2" rx="11" ry="11" style="stroke:#181818;stroke-width:1;"/><path d="M994.3215,344.7719 Q992.5715,344.7719 991.4309,344.0375 Q990.3059,343.2875 989.7434,341.9438 Q989.1965,340.5844 989.1965,338.7875 Q989.1965,336.7563 989.8528,335.3031 Q990.509,333.85 991.7903,333.0688 Q993.0715,332.2875 994.9465,332.2875 Q995.8372,332.2875 996.509,332.475 Q997.1809,332.6469 997.8684,332.9906 L997.0559,335.0063 Q996.4309,334.6938 995.884,334.5688 Q995.3528,334.4438 994.8684,334.4438 Q993.6965,334.4438 992.9934,334.975 Q992.2903,335.5063 991.9934,336.4594 Q991.6965,337.4125 991.6965,338.6781 Q991.6965,340.6938 992.4153,341.6625 Q993.134,342.6156 994.7278,342.6156 Q995.3215,342.6156 995.9465,342.4594 Q996.5715,342.3031 997.3997,341.9281 L997.3997,344.1469 Q996.6653,344.4594 995.8684,344.6156 Q995.0872,344.7719 994.3215,344.7719 Z " fill="#000000"/><text fill="#000000" font-family="sans-serif" font-size="14" lengthAdjust="spacing" textLength="170.8133" x="1009.8712" y="343.282">PatientEmergencyContact</text><line style="stroke:#181818;stroke-width:0.5;" x1="976.27" x2="1187.2673" y1="353.85" y2="353.85"/><ellipse cx="986.27" cy="368.884" fill="none" rx="3" ry="3" style="stroke:#038048;stroke-width:1;"/><text fill="#000000" font-family="sans-serif" font-size="14" lengthAdjust="spacing" textLength="116.4516" x="995.27" y="372.8159">PatientID: integer</text><text fill="#000000" font-family="sans-serif" font-size="14" lengthAdjust="spacing" textLength="139.2295" x="995.27" y="391.8839">ContactType: varchar</text><text fill="#000000" font-family="sans-serif" font-size="14" lengthAdjust="spacing" textLength="186.9973" x="995.27" y="410.9518">ContactInformation: varchar</text><text fill="#000000" font-family="sans-serif" font-size="14" lengthAdjust="spacing" textLength="138.5855" x="995.27" y="430.0197">Relationship: varchar</text><text fill="#000000" font-family="sans-serif" font-size="14" lengthAdjust="spacing" textLength="120.6236" x="995.27" y="449.0876">LastUpdated: date</text><line style="stroke:#181818;stroke-width:0.5;" x1="976.27" x2="1187.2673" y1="457.1896" y2="457.1896"/></g><!--class PatientHistory--><g class="entity" data-entity="PatientHistory" data-source-line="49" data-uid="ent0005" id="entity_PatientHistory"><rect fill="#F1F1F1" height="181.4754" rx="2.5" ry="2.5" style="stroke:#181818;stroke-width:0.5;" width="182.5054" x="757.52" y="302.78"/><ellipse cx="798.0691" cy="318.78" fill="#ADD1B2" rx="11" ry="11" style="stroke:#181818;stroke-width:1;"/><path d="M797.5378,325.7019 Q795.7878,325.7019 794.6472,324.9675 Q793.5222,324.2175 792.9597,322.8738 Q792.4128,321.5144 792.4128,319.7175 Q792.4128,317.6863 793.0691,316.2331 Q793.7253,314.78 795.0066,313.9988 Q796.2878,313.2175 798.1628,313.2175 Q799.0535,313.2175 799.7253,313.405 Q800.3972,313.5769 801.0847,313.9206 L800.2722,315.9363 Q799.6472,315.6238 799.1003,315.4988 Q798.5691,315.3738 798.0847,315.3738 Q796.9128,315.3738 796.2097,315.905 Q795.5066,316.4363 795.2097,317.3894 Q794.9128,318.3425 794.9128,319.6081 Q794.9128,321.6238 795.6316,322.5925 Q796.3503,323.5456 797.9441,323.5456 Q798.5378,323.5456 799.1628,323.3894 Q799.7878,323.2331 800.616,322.8581 L800.616,325.0769 Q799.8816,325.3894 799.0847,325.5456 Q798.3035,325.7019 797.5378,325.7019 Z " fill="#000000"/><text fill="#000000" font-family="sans-serif" font-size="14" lengthAdjust="spacing" textLength="93.7297" x="817.7467" y="324.212">PatientHistory</text><line style="stroke:#181818;stroke-width:0.5;" x1="758.52" x2="939.0254" y1="334.78" y2="334.78"/><ellipse cx="768.52" cy="349.814" fill="none" rx="3" ry="3" style="stroke:#038048;stroke-width:1;"/><text fill="#000000" font-family="sans-serif" font-size="14" lengthAdjust="spacing" textLength="116.4516" x="777.52" y="353.7459">PatientID: integer</text><ellipse cx="768.52" cy="368.8819" fill="none" rx="3" ry="3" style="stroke:#038048;stroke-width:1;"/><text fill="#000000" font-family="sans-serif" font-size="14" lengthAdjust="spacing" textLength="114.5756" x="777.52" y="372.8139">DoctorID: integer</text><ellipse cx="768.52" cy="387.9498" fill="none" rx="3" ry="3" style="stroke:#038048;stroke-width:1;"/><text fill="#000000" font-family="sans-serif" font-size="14" lengthAdjust="spacing" textLength="156.5054" x="777.52" y="391.8818">AppointmentID: integer</text><text fill="#000000" font-family="sans-serif" font-size="14" lengthAdjust="spacing" textLength="95.2136" x="777.52" y="410.9497">VisitDate: date</text><text fill="#000000" font-family="sans-serif" font-size="14" lengthAdjust="spacing" textLength="121.5895" x="777.52" y="430.0176">Diagnosis: varchar</text><text fill="#000000" font-family="sans-serif" font-size="14" lengthAdjust="spacing" textLength="114.5476" x="777.52" y="449.0855">Category: integer</text><text fill="#000000" font-family="sans-serif" font-size="14" lengthAdjust="spacing" textLength="89.2077" x="777.52" y="468.1534">Note: varchar</text><line style="stroke:#181818;stroke-width:0.5;" x1="758.52" x2="939.0254" y1="476.2554" y2="476.2554"/></g><!--class Type_CoreMedInfo--><g class="entity" data-entity="Type_CoreMedInfo" data-source-line="59" data-uid="ent0006" id="entity_Type_CoreMedInfo"><rect fill="#F1F1F1" height="200.5433" rx="2.5" ry="2.5" style="stroke:#181818;stroke-width:0.5;" width="194.2373" x="528.65" y="293.25"/><ellipse cx="560.6185" cy="309.25" fill="#EB937F" rx="11" ry="11" style="stroke:#181818;stroke-width:1;"/><path d="M556.9779,315.75 L556.9779,303.6094 L564.6341,303.6094 L564.6341,305.7344 L559.3529,305.7344 L559.3529,308.3906 L564.3685,308.3906 L564.3685,310.5156 L559.3529,310.5156 L559.3529,313.625 L564.6341,313.625 L564.6341,315.75 L556.9779,315.75 Z " fill="#000000"/><text fill="#000000" font-family="sans-serif" font-size="14" lengthAdjust="spacing" textLength="124.5295" x="578.3893" y="314.682">Type_CoreMedInfo</text><line style="stroke:#181818;stroke-width:0.5;" x1="529.65" x2="721.8873" y1="325.25" y2="325.25"/><text fill="#000000" font-family="sans-serif" font-size="14" lengthAdjust="spacing" textLength="72.0717" x="534.65" y="344.2159">0: Allergies</text><text fill="#000000" font-family="sans-serif" font-size="14" lengthAdjust="spacing" textLength="182.2373" x="534.65" y="363.2839">1: Priority/Treatment Status</text><text fill="#000000" font-family="sans-serif" font-size="14" lengthAdjust="spacing" textLength="134.0215" x="534.65" y="382.3518">2: Medical Condition</text><text fill="#000000" font-family="sans-serif" font-size="14" lengthAdjust="spacing" textLength="133.0415" x="534.65" y="401.4197">3: Genetic Condition</text><text fill="#000000" font-family="sans-serif" font-size="14" lengthAdjust="spacing" textLength="111.7056" x="534.65" y="420.4876">4: Substance Use</text><text fill="#000000" font-family="sans-serif" font-size="14" lengthAdjust="spacing" textLength="152.3054" x="534.65" y="439.5555">5: Lifestyle Information</text><text fill="#000000" font-family="sans-serif" font-size="14" lengthAdjust="spacing" textLength="145.7954" x="534.65" y="458.6234">6: Dietary Information</text><text fill="#000000" font-family="sans-serif" font-size="14" lengthAdjust="spacing" textLength="53.7178" x="534.65" y="477.6914">7: Other</text><line style="stroke:#181818;stroke-width:0.5;" x1="529.65" x2="721.8873" y1="485.7933" y2="485.7933"/></g><!--link Patient to PatientEmergencyContact--><g class="link" data-entity-1="Patient" data-entity-2="PatientEmergencyContact" data-source-line="70" data-uid="lnk7" id="link_Patient_PatientEmergencyContact"><path codeLine="70" d="M215.47,73.56 C227.05,62.21 239.94,52.2 254.27,43.96 C320.37,6 874.18,6 940.27,43.96 C1037.21,99.64 1067.1053,230.5981 1076.7253,315.6081" fill="none" id="Patient-to-PatientEmergencyContact" style="stroke:#181818;stroke-width:1;"/><polygon fill="#181818" points="1077.4,321.57,1080.3626,312.1773,1076.8378,316.6017,1072.4134,313.0769,1077.4,321.57" style="stroke:#181818;stroke-width:1;"/></g><!--link Patient to PatientHistory--><g class="link" data-entity-1="Patient" data-entity-2="PatientHistory" data-source-line="71" data-uid="lnk8" id="link_Patient_PatientHistory"><path codeLine="71" d="M215.47,73.56 C227.05,62.21 239.94,52.2 254.27,43.96 C299.46,18.01 678.08,18.01 723.27,43.96 C812.03,94.95 838.4344,211.144 846.0944,296.604" fill="none" id="Patient-to-PatientHistory" style="stroke:#181818;stroke-width:1;"/><polygon fill="#181818" points="846.63,302.58,849.8106,293.2588,846.1836,297.6,841.8425,293.973,846.63,302.58" style="stroke:#181818;stroke-width:1;"/></g><!--link Patient to PatientCoreMedicalInformation--><g class="link" data-entity-1="Patient" data-entity-2="PatientCoreMedicalInformation" data-source-line="72" data-uid="lnk9" id="link_Patient_PatientCoreMedicalInformation"><path codeLine="72" d="M218.8,393.52 C230.4,393.52 236.01,393.52 247.61,393.52" fill="none" id="Patient-to-PatientCoreMedicalInformation" style="stroke:#181818;stroke-width:1;"/><polygon fill="#181818" points="253.61,393.52,244.61,389.52,248.61,393.52,244.61,397.52,253.61,393.52" style="stroke:#181818;stroke-width:1;"/></g><!--link PatientCoreMedicalInformation to Type_CoreMedInfo--><g class="link" data-entity-1="PatientCoreMedicalInformation" data-entity-2="Type_CoreMedInfo" data-source-line="73" data-uid="lnk10" id="link_PatientCoreMedicalInformation_Type_CoreMedInfo"><path codeLine="73" d="M493.86,393.52 C505.37,393.52 510.88,393.52 522.39,393.52" fill="none" id="PatientCoreMedicalInformation-to-Type_CoreMedInfo" style="stroke:#181818;stroke-width:1;"/><polygon fill="#181818" points="528.39,393.52,519.39,389.52,523.39,393.52,519.39,397.52,528.39,393.52" style="stroke:#181818;stroke-width:1;"/></g><!--SRC=[XLJBRjim4BpxAtWFYhvRW8S2ZkKs1XpRoACz5WovbXQGkCAICY0K_VTIb9fAj1hhnfabEJixb2wLS-AWF8BrujT2XEzgM6uoAT1wo84Z_XNP-PsgG8gJObse7hv5OqeunxTghZhRNqjXb8UuMll2eaRVJeiE34TW1hDLDczKdfonrxgfWqQo__18x5GKFJagz5SJ-nqbEXXFm6wB6go3b3qKP9DBrvN2SWejZM5mRWgkphgvzw7Tf8WQwxbDv4U3lwD3dyKTppPrLgPu93RMDQoiXhJjP-B0T483d5nrNHAPXxQ6wOXl0FF2Jx4V2TRRjxlhscf2yq_e-wbmhcn6bdZC_5uiz3XZAsAu1ODQbHjx9AxY72yaRrHvhdb7OtVJ-zOLS0vMjokoNkbB6H-g-bkc4ul4ICcKluCoegx0-lmTFDRTpCmmkbJZ3JfFt5wGTfMH3cLdyBAkAG3Lp9QvB6MeSaiEqzW6FgSkaYzw2xQfHEVEps6GdI63y3TIBCios8tW8l1MXfUCnE55l7vWK56ZwDCH2zv9CMIXyzTWPs0ataln3Inur0dnGOhxvidvBjhYqVKjVPHYYqTmlYrXd9L8VfAXPV0g-9jIdwNO-m9YOtz_WQ- -_2yvCoN3u6QO-PWlNdu4ONjgxHy0]--></g></svg>